<svg width="60" height="60" viewBox="0 0 60 60" fill="none" xmlns="http://www.w3.org/2000/svg">
<g clip-path="url(#clip0_14_685)">
<path opacity="0.932" fill-rule="evenodd" clip-rule="evenodd" d="M21.0352 -0.0585938C21.8164 -0.0585938 22.5976 -0.0585938 23.3789 -0.0585938C27.3143 1.16792 28.8963 3.82417 28.125 7.91016C27.6941 9.22194 26.9324 10.2962 25.8398 11.1328C26.3684 11.4277 26.8957 11.7206 27.4219 12.0117C29.1203 11.3894 30.8195 11.3894 32.5195 12.0117C33.0435 11.6909 33.5903 11.398 34.1602 11.1328C31.4929 8.89148 30.8875 6.17665 32.3438 2.98828C33.3536 1.4403 34.7402 0.424678 36.5039 -0.0585938C37.3242 -0.0585938 38.1445 -0.0585938 38.9648 -0.0585938C42.5013 0.993512 44.1224 3.37632 43.8281 7.08984C43.538 8.78409 42.6981 10.1317 41.3086 11.1328C41.7299 11.3336 42.14 11.5484 42.5391 11.7773C45.5455 10.4879 48.1627 11.0347 50.3906 13.418C50.8465 14.0173 51.1786 14.6814 51.3867 15.4102C51.244 16.2049 50.7752 16.4979 49.9805 16.2891C49.5962 15.7365 49.2251 15.1702 48.8672 14.5898C47.1263 12.7695 45.1536 12.4765 42.9492 13.7109C41.0138 15.3006 40.5645 17.2342 41.6016 19.5117C43.3477 21.9352 45.5156 22.3843 48.1055 20.8594C48.7939 20.2623 49.3409 19.5592 49.7461 18.75C50.8102 18.3732 51.2985 18.7444 51.2109 19.8633C50.7469 20.9525 50.0243 21.8314 49.043 22.5C52.0369 23.9325 53.7752 26.2958 54.2578 29.5898C54.336 31.8946 54.336 34.1992 54.2578 36.5039C53.976 37.6452 53.2534 38.2897 52.0898 38.4375C47.9885 38.4961 43.887 38.5157 39.7852 38.4961C40.0665 40.0617 39.5196 41.2141 38.1445 41.9531C37.0004 42.0854 35.848 42.144 34.6875 42.1289C33.6524 42.1093 32.6172 42.0899 31.582 42.0703C31.4747 42.0265 31.377 41.9679 31.2891 41.8945C31.1153 41.5193 31.0761 41.1286 31.1719 40.7227C31.3264 40.4898 31.5413 40.353 31.8164 40.3125C33.6914 40.2735 35.5664 40.2343 37.4414 40.1953C37.5782 40.0586 37.7148 39.9219 37.8516 39.7852C37.9297 37.2852 37.9297 34.7851 37.8516 32.2852C37.0898 28.5547 34.8437 26.3086 31.1133 25.5469C27.5596 25.2241 24.8448 26.5718 22.9688 29.5898C22.5158 30.4799 22.2033 31.4174 22.0313 32.4023C21.9531 34.8633 21.9531 37.3242 22.0313 39.7852C22.168 39.9219 22.3047 40.0586 22.4414 40.1953C24.3164 40.2343 26.1914 40.2735 28.0664 40.3125C28.3416 40.353 28.5564 40.4898 28.7109 40.7227C28.8067 41.1286 28.7675 41.5193 28.5938 41.8945C28.5059 41.9679 28.4081 42.0265 28.3008 42.0703C27.2657 42.0899 26.2304 42.1093 25.1953 42.1289C24.0348 42.144 22.8824 42.0854 21.7383 41.9531C20.3632 41.2141 19.8163 40.0617 20.0977 38.4961C15.9959 38.5157 11.8943 38.4961 7.79297 38.4375C6.62945 38.2897 5.90679 37.6452 5.625 36.5039C5.54687 34.2383 5.54687 31.9726 5.625 29.707C6.11802 26.3944 7.8563 23.992 10.8398 22.5C8.86203 21.0243 7.98312 19.0516 8.20313 16.582C9.03369 12.7775 11.397 10.9611 15.293 11.1328C16.0293 11.2415 16.7324 11.4564 17.4023 11.7773C17.82 11.5348 18.2497 11.3199 18.6914 11.1328C16.001 8.95839 15.3565 6.2826 16.7578 3.10547C17.7409 1.43698 19.1667 0.38229 21.0352 -0.0585938ZM37.6758 1.69922C39.6993 1.84211 41.0859 2.85773 41.8359 4.74609C42.3551 8.00674 40.9879 9.88174 37.7344 10.3711C35.1069 10.1069 33.6811 8.66161 33.457 6.03516C33.5373 4.44894 34.2404 3.21847 35.5664 2.34375C36.245 1.99342 36.9482 1.77857 37.6758 1.69922ZM21.2695 1.81641C23.3298 1.56755 24.9118 2.30973 26.0156 4.04297C26.9679 6.23452 26.5186 8.08999 24.668 9.60937C22.2299 10.9109 20.1791 10.4616 18.5156 8.26172C17.4425 5.97214 17.8917 4.03855 19.8633 2.46094C20.3291 2.20942 20.7979 1.99458 21.2695 1.81641ZM21.3867 12.2461C22.8432 12.1371 24.2105 12.4301 25.4883 13.125C22.7659 15.7785 22.2776 18.8058 24.0234 22.207C24.585 23.0421 25.2686 23.7648 26.0742 24.375C24.7197 24.969 23.5478 25.8089 22.5586 26.8945C21.8975 25.5889 20.9991 24.4757 19.8633 23.5547C19.2968 23.1736 18.7109 22.822 18.1055 22.5C20.7886 20.2182 21.3941 17.4643 19.9219 14.2383C19.6712 13.8353 19.3782 13.4641 19.043 13.125C19.7873 12.7015 20.5685 12.4085 21.3867 12.2461ZM36.8555 12.2461C38.2706 12.1307 39.5987 12.4041 40.8398 13.0664C39.4778 14.607 38.9504 16.4039 39.2578 18.457C39.5742 20.1387 40.4141 21.4863 41.7773 22.5C39.7952 23.5056 38.3304 25.0095 37.3828 27.0117C36.4153 25.8341 35.2239 24.9552 33.8086 24.375C36.6138 22.1992 37.4927 19.4062 36.4453 15.9961C35.9925 14.8785 35.3089 13.9214 34.3945 13.125C35.1908 12.7232 36.0111 12.4302 36.8555 12.2461ZM13.7695 12.9492C16.32 12.8665 17.9801 14.0384 18.75 16.4648C19.0239 19.2204 17.8324 20.9586 15.1758 21.6797C12.3813 21.8745 10.6821 20.6048 10.0781 17.8711C10.0328 15.264 11.2633 13.6234 13.7695 12.9492ZM29.2383 13.418C31.3454 13.2705 33.0056 14.0518 34.2188 15.7617C35.6296 18.4961 35.1413 20.8202 32.7539 22.7344C29.8554 24.2406 27.453 23.6742 25.5469 21.0352C24.2479 18.1644 24.8924 15.8402 27.4805 14.0625C28.0587 13.7856 28.6446 13.5708 29.2383 13.418ZM13.7695 23.6133C17.4847 23.6007 19.9457 25.339 21.1523 28.8281C20.6684 29.8944 20.3363 31.0077 20.1563 32.168C20.0977 33.6518 20.0781 35.1362 20.0977 36.6211C16.074 36.6407 12.0506 36.6211 8.02735 36.5625C7.79391 36.4952 7.61813 36.3585 7.5 36.1523C7.42187 34.043 7.42187 31.9336 7.5 29.8242C8.17994 26.3122 10.2698 24.2419 13.7695 23.6133ZM44.8242 23.6133C48.2663 23.6013 50.6686 25.1639 52.0312 28.3008C52.2038 28.7957 52.3209 29.3036 52.3828 29.8242C52.461 31.9336 52.461 34.043 52.3828 36.1523C52.2647 36.3585 52.0889 36.4952 51.8555 36.5625C47.8322 36.6211 43.8088 36.6407 39.7852 36.6211C39.8047 35.0972 39.7852 33.5737 39.7266 32.0508C39.5243 30.9169 39.1923 29.823 38.7305 28.7695C39.7328 25.8127 41.764 24.094 44.8242 23.6133Z" fill="#000"/>
<path opacity="0.926" fill-rule="evenodd" clip-rule="evenodd" d="M-0.0585938 44.4727C-0.0585938 44.0429 -0.0585938 43.6133 -0.0585938 43.1836C0.113682 42.9901 0.269932 42.7752 0.410156 42.5391C1.10817 42.1934 1.85036 41.998 2.63672 41.9531C2.93936 41.269 3.32998 40.644 3.80859 40.0781C4.75571 39.5886 5.59556 39.7253 6.32812 40.4883C6.56708 40.9857 6.82099 41.4741 7.08984 41.9531C7.88275 41.9869 8.62493 42.1822 9.31641 42.5391C9.91721 43.2411 10.0149 44.0029 9.60937 44.8242C9.21875 45.2148 8.82812 45.6055 8.4375 45.9961C8.45645 46.5415 8.51504 47.0884 8.61328 47.6367C8.36854 49.1464 7.50915 49.6738 6.03516 49.2188C5.6353 49.0482 5.2642 48.8334 4.92187 48.5742C4.14064 49.1864 3.26174 49.4404 2.28516 49.3359C1.70769 49.1101 1.33659 48.7 1.17187 48.1055C1.18553 47.3995 1.2246 46.6964 1.28906 45.9961C0.76848 45.5352 0.319261 45.0273 -0.0585938 44.4727ZM4.74609 42.0117C4.8488 41.9964 4.92693 42.0354 4.98047 42.1289C5.42278 43.3893 6.32121 44.0142 7.67578 44.0039C7.23776 44.4221 6.86666 44.8909 6.5625 45.4102C6.54125 46.0438 6.52172 46.6688 6.50391 47.2852C5.41016 46.5039 4.3164 46.5039 3.22266 47.2852C3.21396 46.6711 3.19443 46.046 3.16406 45.4102C2.8599 44.8909 2.4888 44.4221 2.05078 44.0039C3.45787 44.0004 4.35632 43.3363 4.74609 42.0117Z" fill="#000"/>
<path opacity="0.926" fill-rule="evenodd" clip-rule="evenodd" d="M59.9414 43.1836C59.9414 43.6133 59.9414 44.0429 59.9414 44.4727C59.5636 45.0273 59.1143 45.5352 58.5937 45.9961C58.6582 46.6964 58.6972 47.3995 58.7109 48.1055C58.3481 49.1368 57.6254 49.547 56.543 49.3359C56.0025 49.1439 55.4946 48.8899 55.0195 48.5742C54.2649 49.197 53.4056 49.4509 52.4414 49.3359C51.6592 49.0414 51.2686 48.4751 51.2695 47.6367C51.3677 47.0884 51.4263 46.5415 51.4453 45.9961C51.0547 45.6055 50.664 45.2148 50.2734 44.8242C49.7597 43.6137 50.0917 42.7348 51.2695 42.1875C51.779 42.1204 52.2868 42.0422 52.793 41.9531C53.0957 41.269 53.4862 40.644 53.9648 40.0781C54.668 39.6875 55.3711 39.6875 56.0742 40.0781C56.5528 40.644 56.9434 41.269 57.2461 41.9531C58.0349 41.9865 58.777 42.1819 59.4726 42.5391C59.6129 42.7752 59.7691 42.9901 59.9414 43.1836ZM54.9023 42.0117C55.005 41.9964 55.0832 42.0354 55.1367 42.1289C55.579 43.3893 56.4774 44.0142 57.832 44.0039C57.394 44.4221 57.023 44.8909 56.7187 45.4102C56.6884 46.046 56.6688 46.6711 56.6601 47.2852C55.5664 46.5039 54.4726 46.5039 53.3789 47.2852C53.3611 46.6688 53.3415 46.0438 53.3203 45.4102C53.0161 44.8909 52.6451 44.4221 52.207 44.0039C53.6141 44.0004 54.5126 43.3363 54.9023 42.0117Z" fill="#000"/>
<path opacity="0.925" fill-rule="evenodd" clip-rule="evenodd" d="M15.293 43.7695C16.2047 43.6627 16.9273 43.9752 17.461 44.707C17.6701 45.2567 17.924 45.784 18.2227 46.2891C18.9591 46.4575 19.7012 46.6138 20.4492 46.7578C21.6919 47.5692 21.9067 48.6043 21.0938 49.8633C20.5882 50.2321 20.1389 50.6618 19.7461 51.1524C20.0766 52.0784 20.1352 53.0159 19.9219 53.9649C19.3229 54.9328 18.4832 55.2258 17.4024 54.8438C16.8467 54.5953 16.3193 54.3024 15.8203 53.9649C15.1601 54.3438 14.4764 54.6758 13.7695 54.9609C12.3645 55.1176 11.5832 54.4925 11.4258 53.0859C11.5694 52.4015 11.667 51.7179 11.7188 51.0352C11.0845 50.4796 10.5377 49.8546 10.0781 49.1602C9.81492 48.1054 10.147 47.3046 11.0742 46.7578C11.7715 46.6079 12.4746 46.4908 13.1836 46.4063C13.5602 45.829 13.8924 45.2235 14.1797 44.5899C14.4761 44.1932 14.8472 43.9198 15.293 43.7695ZM13.418 53.0274C13.4768 52.3814 13.5549 51.7369 13.6524 51.0938C13.6447 50.7901 13.5861 50.4972 13.4766 50.2149C12.9922 49.6132 12.4649 49.0467 11.8945 48.5156C12.5586 48.3984 13.2226 48.2813 13.8867 48.1641C14.1475 48.0983 14.3819 47.9811 14.5899 47.8125C15.0128 47.1516 15.4034 46.468 15.7617 45.7617C16.0845 46.29 16.3774 46.8368 16.6406 47.4024C16.906 47.7461 17.2381 48 17.6367 48.1641C18.3008 48.2813 18.9648 48.3984 19.6289 48.5156C19.1797 48.9648 18.7304 49.4141 18.2813 49.8633C18.1319 50.1231 18.0147 50.3966 17.9297 50.6836C17.9446 51.5138 18.0227 52.3341 18.1641 53.1445C17.4542 52.6333 16.6729 52.2817 15.8203 52.0899C15.5219 52.1206 15.2289 52.1792 14.9414 52.2656C14.4636 52.5826 13.9559 52.8366 13.418 53.0274Z" fill="#000"/>
<path opacity="0.926" fill-rule="evenodd" clip-rule="evenodd" d="M43.6523 43.7695C44.4918 43.665 45.1754 43.9384 45.7031 44.5898C45.9905 45.2235 46.3226 45.829 46.6992 46.4063C47.4082 46.4907 48.1113 46.6079 48.8086 46.7578C49.902 47.4821 50.1558 48.4392 49.5703 49.6289C49.0375 50.1224 48.5491 50.6497 48.1055 51.2109C48.3789 52.0842 48.4375 52.9631 48.2812 53.8477C47.7206 54.8681 46.8807 55.2002 45.7617 54.8438C45.1861 54.5658 44.6197 54.2728 44.0625 53.9648C43.2192 54.6513 42.2623 54.9833 41.1914 54.9609C40.2769 54.6713 39.8081 54.0463 39.7852 53.0859C39.865 52.4332 39.9821 51.7887 40.1367 51.1523C39.7439 50.6618 39.2946 50.2321 38.7891 49.8633C37.9419 48.5965 38.1568 47.5613 39.4336 46.7578C40.1852 46.6338 40.9274 46.4776 41.6602 46.2891C41.9968 45.6352 42.3484 44.9906 42.7148 44.3555C42.9994 44.0971 43.3119 43.9017 43.6523 43.7695ZM46.4648 53.0273C45.927 52.8366 45.4192 52.5826 44.9414 52.2656C44.3925 52.0419 43.8457 52.0419 43.3008 52.2656C42.7451 52.5141 42.2177 52.807 41.7187 53.1445C41.7959 52.4659 41.8935 51.7822 42.0117 51.0938C41.9689 50.6528 41.8322 50.2426 41.6016 49.8633C41.1484 49.3709 40.6602 48.9217 40.1367 48.5156C41.0275 48.439 41.8868 48.2436 42.7148 47.9297C42.8906 47.7539 43.0664 47.5781 43.2422 47.4023C43.5054 46.8368 43.7984 46.29 44.1211 45.7617C44.436 46.4892 44.8267 47.1729 45.293 47.8125C45.501 47.9811 45.7353 48.0983 45.9961 48.1641C46.6602 48.2813 47.3242 48.3984 47.9883 48.5156C47.4179 49.0467 46.8906 49.6132 46.4062 50.2148C46.2967 50.4971 46.2381 50.7901 46.2305 51.0938C46.328 51.7369 46.406 52.3814 46.4648 53.0273Z" fill="#000"/>
<path opacity="0.928" fill-rule="evenodd" clip-rule="evenodd" d="M33.9258 59.9414C33.457 59.9414 32.9883 59.9414 32.5195 59.9414C31.703 59.455 30.8436 59.0254 29.9414 58.6523C29.0392 59.0254 28.1798 59.455 27.3633 59.9414C26.8945 59.9414 26.4258 59.9414 25.957 59.9414C24.9598 59.5521 24.4519 58.81 24.4336 57.7148C24.5298 56.8045 24.686 55.9062 24.9023 55.0195C24.1191 54.2168 23.3573 53.3965 22.6172 52.5586C22.1184 51.1957 22.4896 50.1605 23.7305 49.4531C24.7515 49.2683 25.7671 49.0731 26.7773 48.8672C27.2099 48.0217 27.6592 47.1819 28.125 46.3477C29.4102 45.0724 30.6602 45.1115 31.875 46.4648C32.272 47.2785 32.6822 48.0792 33.1055 48.8672C34.1157 49.0731 35.1313 49.2683 36.1523 49.4531C37.3932 50.1605 37.7644 51.1957 37.2656 52.5586C36.5255 53.3965 35.7637 54.2168 34.9805 55.0195C35.1968 55.9062 35.353 56.8045 35.4492 57.7148C35.4309 58.81 34.923 59.5521 33.9258 59.9414ZM29.8242 47.2852C30.002 47.2865 30.1387 47.3645 30.2344 47.5195C30.625 48.3008 31.0157 49.082 31.4062 49.8633C31.621 50.0781 31.836 50.293 32.0508 50.5078C33.1884 50.833 34.3409 51.087 35.5078 51.2695C35.586 51.4257 35.586 51.5821 35.5078 51.7383C34.6789 52.4885 33.9368 53.3088 33.2812 54.1992C33.2302 54.4743 33.1716 54.7478 33.1055 55.0195C33.2541 55.8995 33.4104 56.7784 33.5742 57.6563C33.5429 58.027 33.3477 58.1442 32.9883 58.0078C32.207 57.6172 31.4258 57.2265 30.6445 56.8359C30.1758 56.7578 29.707 56.7578 29.2383 56.8359C28.457 57.2265 27.6758 57.6172 26.8945 58.0078C26.7056 58.0922 26.5298 58.0727 26.3672 57.9492C26.4342 56.9682 26.5709 55.9916 26.7773 55.0195C26.7213 54.5627 26.5846 54.133 26.3672 53.7305C25.7031 53.0664 25.0391 52.4024 24.375 51.7383C24.2968 51.5821 24.2968 51.4257 24.375 51.2695C25.5449 51.1023 26.6972 50.8484 27.832 50.5078C28.0468 50.293 28.2618 50.0781 28.4766 49.8633C28.8974 48.9823 29.3466 48.1229 29.8242 47.2852Z" fill="#000"/>
</g>
<defs>
<clipPath id="clip0_14_685">
<rect width="60" height="60" fill="white"/>
</clipPath>
</defs>
</svg>
