<svg width="60" height="60" viewBox="0 0 60 60" fill="#000" xmlns="http://www.w3.org/2000/svg">
<g clip-path="url(#clip0_98_4)">
<path opacity="0.923" fill-rule="evenodd" clip-rule="evenodd" d="M46.6992 -0.0585938C47.0508 -0.0585938 47.4023 -0.0585938 47.7539 -0.0585938C48.6845 0.969558 49.6806 1.94612 50.7422 2.87109C50.9988 3.40168 50.9597 3.9095 50.625 4.39453C50.1758 4.76563 49.7265 5.13672 49.2773 5.50781C48.8867 5.97656 48.496 6.44531 48.1055 6.91406C47.5195 7.30468 46.9336 7.30468 46.3476 6.91406C45.6641 5.91797 44.8242 5.07812 43.8281 4.39453C43.511 3.90471 43.472 3.39689 43.7109 2.87109C44.7725 1.94612 45.7686 0.969558 46.6992 -0.0585938ZM47.168 2.16797C47.6733 2.59519 48.142 3.06394 48.5742 3.57422C48.0674 3.98345 47.6182 4.4522 47.2266 4.98047C46.8349 4.4522 46.3857 3.98345 45.8789 3.57422C46.3112 3.10311 46.7408 2.63436 47.168 2.16797Z" fill="#000"/>
<path opacity="0.927" fill-rule="evenodd" clip-rule="evenodd" d="M38.1445 3.57422C39.1503 3.37421 39.9902 3.64765 40.664 4.39453C41.4963 6.11767 42.3752 7.81689 43.3008 9.49219C45.1687 9.82609 47.0437 10.1386 48.9258 10.4297C50.4712 11.2387 50.8424 12.4301 50.039 14.0039C48.7046 15.3383 47.3764 16.6665 46.0547 17.9883C46.3084 19.8625 46.6013 21.7375 46.9336 23.6133C46.8505 24.6919 46.3036 25.4145 45.2929 25.7812C44.6966 25.878 44.1106 25.8389 43.5351 25.6641C41.9735 24.8149 40.3915 24.0142 38.789 23.2617C37.1084 24.0532 35.4484 24.8931 33.8086 25.7812C32.5316 26.0729 31.5746 25.6628 30.9375 24.5508C30.823 24.2296 30.7644 23.8975 30.7617 23.5547C30.9964 21.9702 31.2504 20.3882 31.5234 18.8086C31.6016 18.4961 31.6016 18.1836 31.5234 17.8711C30.0315 16.4576 28.6252 14.9732 27.3047 13.418C26.9175 11.7524 27.562 10.7173 29.2383 10.3125C30.9672 10.0934 32.686 9.81998 34.3945 9.49219C35.2493 7.84116 36.0891 6.181 36.914 4.51172C37.2458 4.08057 37.6559 3.76808 38.1445 3.57422ZM38.6133 5.44922C38.8059 5.4242 38.9817 5.46326 39.1406 5.56641C39.9609 7.20703 40.7812 8.84766 41.6015 10.4883C42.0463 11.1111 42.6518 11.4431 43.4179 11.4844C45.1421 11.6838 46.8413 11.9768 48.5156 12.3633C48.5938 12.5195 48.5938 12.6758 48.5156 12.832C47.2622 14.1246 45.9731 15.3746 44.6484 16.582C44.1711 17.21 44.0149 17.9132 44.1797 18.6914C44.4545 20.3208 44.7474 21.9418 45.0586 23.5547C44.945 23.915 44.7106 24.0322 44.3554 23.9062C42.871 23.125 41.3867 22.3438 39.9023 21.5625C39.2875 21.386 38.6626 21.347 38.0273 21.4453C36.3875 22.3335 34.7274 23.1734 33.0468 23.9648C32.8915 23.935 32.7743 23.8568 32.6953 23.7305C32.9238 21.8515 33.2168 19.9765 33.5742 18.1055C33.5182 17.6487 33.3814 17.2189 33.164 16.8164C31.8359 15.4883 30.5077 14.1601 29.1797 12.832C29.0586 12.5136 29.1562 12.2987 29.4726 12.1875C31.2713 11.925 33.0682 11.6515 34.8633 11.3672C35.3055 11.2146 35.6767 10.9607 35.9765 10.6055C36.8271 8.86528 37.706 7.14653 38.6133 5.44922Z" fill="#000"/>
<path opacity="0.923" fill-rule="evenodd" clip-rule="evenodd" d="M25.1367 16.2305C25.5103 16.2443 25.8618 16.3419 26.1914 16.5234C26.9921 17.4805 27.871 18.3594 28.8281 19.1602C29.0625 19.6679 29.0625 20.1758 28.8281 20.6836C27.832 21.5235 26.9141 22.4414 26.0742 23.4375C25.5436 23.6941 25.0358 23.655 24.5508 23.3203C23.75 22.3632 22.8711 21.4843 21.914 20.6836C21.655 20.1144 21.6941 19.5675 22.0312 19.043C23.0273 18.3594 23.8672 17.5195 24.5508 16.5234C24.7634 16.4347 24.9587 16.3371 25.1367 16.2305ZM25.2539 18.5742C25.8092 18.9529 26.317 19.402 26.7773 19.9219C26.3264 20.3925 25.8576 20.8417 25.3711 21.2695C24.9618 20.7627 24.4931 20.3135 23.9648 19.9219C24.4974 19.5652 24.927 19.116 25.2539 18.5742Z" fill="#000"/>
<path opacity="0.921" fill-rule="evenodd" clip-rule="evenodd" d="M53.2617 16.2305C53.6788 16.2197 54.0694 16.3173 54.4336 16.5234C54.8577 17.0009 55.2679 17.4892 55.6641 17.9883C56.4454 18.6914 57.2265 19.3945 58.0078 20.0977C58.2668 20.6668 58.2278 21.2137 57.8906 21.7383C56.582 22.7344 55.4297 23.8867 54.4336 25.1953C53.8867 25.4297 53.3399 25.4297 52.793 25.1953C51.7579 23.8477 50.5664 22.6562 49.2188 21.6211C48.8072 20.5888 49.1002 19.8271 50.0977 19.3359C51.1524 18.2613 52.207 17.2262 53.2617 16.2305ZM53.4961 18.5742C54.2879 19.3458 55.1083 20.1075 55.957 20.8594C55.116 21.5638 54.3347 22.3255 53.6133 23.1445C52.8919 22.3255 52.1106 21.5638 51.2695 20.8594C52.1141 20.1907 52.8563 19.429 53.4961 18.5742Z" fill="#000"/>
<path opacity="0.934" fill-rule="evenodd" clip-rule="evenodd" d="M59.9414 41.1914C59.9414 41.6992 59.9414 42.2071 59.9414 42.7148C59.5804 43.4439 58.9944 43.8931 58.1836 44.0625C51.1523 45.9375 44.1211 47.8125 37.0898 49.6875C36.4257 49.7657 35.7618 49.7657 35.0977 49.6875C30.9565 48.5937 26.8158 47.4998 22.6758 46.4063C20.7288 46.2369 19.1468 46.9206 17.9297 48.457C15.1954 52.0508 12.4609 55.6445 9.72656 59.2383C9.48484 59.5001 9.23093 59.7345 8.96484 59.9414C6.23047 59.9414 3.49609 59.9414 0.761719 59.9414C0.449218 59.707 0.175781 59.4336 -0.0585938 59.1211C-0.0585938 54.8633 -0.0585938 50.6054 -0.0585938 46.3477C4.96035 41.192 10.0775 36.1334 15.293 31.1719C18.3484 29.2872 21.6687 28.584 25.2539 29.0625C25.8075 29.3479 25.9833 29.7972 25.7812 30.4102C25.639 30.5917 25.4632 30.7283 25.2539 30.8203C21.9439 30.4506 18.8971 31.1537 16.1133 32.9297C11.2923 37.6335 6.50714 42.3796 1.75781 47.168C1.69922 50.8397 1.6797 54.5115 1.69922 58.1836C3.84802 58.2032 5.99645 58.1836 8.14453 58.125C11.1186 54.2277 14.1069 50.3411 17.1094 46.4648C18.9213 44.7763 21.0503 44.1708 23.4961 44.6484C27.6806 45.7962 31.8798 46.8704 36.0938 47.8711C43.4044 46.0659 50.6895 44.1519 57.9492 42.1289C58.1032 40.933 57.6735 40.0151 56.6602 39.375C56.3972 39.2688 56.1238 39.2102 55.8398 39.1992C49.9723 40.7058 44.1129 42.2487 38.2617 43.8281C36.8102 44.0317 35.4821 43.7191 34.2773 42.8906C32.1289 40.7422 29.9804 38.5937 27.832 36.4453C26.7773 36.4063 25.7227 36.3672 24.668 36.3281C23.9469 36.1565 23.693 35.7073 23.9062 34.9805C24.043 34.8437 24.1796 34.7071 24.3164 34.5703C27.5977 34.5313 30.8789 34.4922 34.1602 34.4531C35.3784 34.1074 35.8668 33.3067 35.625 32.0508C35.3475 31.4725 34.8983 31.1013 34.2773 30.9375C32.4023 30.8985 30.5273 30.8593 28.6523 30.8203C28.09 30.4604 27.9533 29.9721 28.2422 29.3555C28.348 29.2147 28.4846 29.117 28.6523 29.0625C30.6055 28.9843 32.5586 28.9843 34.5117 29.0625C36.8575 29.6536 37.8536 31.1575 37.5 33.5742C36.9858 35.2214 35.8725 36.1393 34.1602 36.3281C32.9493 36.3672 31.7382 36.4063 30.5273 36.4453C31.6016 37.5196 32.6757 38.5937 33.75 39.668C34.8537 39.0087 35.967 38.3641 37.0898 37.7344C38.1052 37.6172 38.5153 38.0665 38.3203 39.082C37.315 39.79 36.2798 40.454 35.2148 41.0742C35.7093 41.649 36.3342 41.942 37.0898 41.9531C40.8206 39.7555 44.5706 37.5875 48.3398 35.4492C48.4595 35.3904 48.4791 35.3123 48.3984 35.2148C47.9179 34.6509 47.3123 34.4361 46.582 34.5703C44.7704 35.5037 42.9736 36.4608 41.1914 37.4414C40.1972 37.1244 40.002 36.5385 40.6055 35.6836C42.2071 34.7657 43.8086 33.8476 45.4102 32.9297C47.268 32.3004 48.8305 32.73 50.0977 34.2188C50.6992 34.1439 51.3046 34.0463 51.9141 33.9258C53.2287 33.9776 54.2834 34.5245 55.0781 35.5664C55.4101 36.1328 55.7422 36.6993 56.0742 37.2656C58.3349 37.6316 59.6239 38.9402 59.9414 41.1914ZM51.7383 35.8008C52.8739 35.9395 53.6552 36.5449 54.082 37.6172C50.5683 38.607 47.0527 39.5445 43.5352 40.4297C46.2286 38.7906 48.9629 37.2477 51.7383 35.8008Z" fill="#000"/>
</g>
<defs>
<clipPath id="clip0_98_4">
<rect width="60" height="60" fill="white"/>
</clipPath>
</defs>
</svg>
