<svg viewBox="0 0 400 143" fill="#000" xmlns="http://www.w3.org/2000/svg">
                          <path d="M393.419 128.051C387.447 127.601 378.05 118.171 372.847 114.504C366.82 110.289 360.585 106.062 353.438 104.01C350.222 103.087 347.005 103 343.942 101.496C340.534 99.6397 337.367 97.3723 334.512 94.7443C316.025 79.4041 296.04 65.9653 274.859 54.6314C269.15 51.5466 263.354 48.6155 257.81 45.2344C252.267 41.8532 247.755 37.5499 242.441 34.2016L225.634 23.6739C222.271 21.5098 218.389 20.2855 214.393 20.1281C209.607 20.0622 207.29 22.0053 204.513 25.4523C200.857 29.9642 195.841 32.4781 191.965 36.6168C188.507 40.3273 185.971 44.8172 182.272 48.3081C179.161 51.046 175.633 53.2696 171.821 54.8948C168.034 56.6513 164.137 58.1882 160.459 60.1313C158.483 61.2291 156.628 62.4366 154.696 63.5783C150.535 66.0154 146.221 68.2 142.214 70.8895C138.701 73.2498 135.913 76.6748 132.103 78.574C129.75 79.6312 127.253 80.3341 124.693 80.6598C115.461 82.2077 105.965 82.6468 96.6669 83.8434C88.1371 84.9411 80.6722 90.1666 74.5465 96.1824C55.8842 114.482 31.1512 124.944 7 135C11.3911 126.8 19.9977 121.969 28.0225 117.282C42.2937 108.928 56.2355 99.4977 67.1036 87.005C70.5177 83.0859 73.6903 78.7826 78.2131 76.1589C82.736 73.5352 87.8407 72.8655 92.9234 72.4264C101.346 71.6547 109.808 71.409 118.26 71.6909C120.629 71.8884 123.014 71.7702 125.352 71.3396C127.889 70.6149 130.299 69.5041 132.498 68.0463C143.981 61.2181 155.691 54.7631 167.628 48.6814C173.193 45.8381 178.21 43.3571 182.513 38.7026C186.356 34.531 189.386 29.6898 193.184 25.5292C199.132 18.7081 205.919 12.6663 213.383 7.54748C214.284 6.91058 215.343 6.5355 216.443 6.4638C217.544 6.39211 218.643 6.62661 219.618 7.14131C234.757 14.8258 251.004 21.0063 263.53 32.6538C268.192 37.0403 273.307 40.919 278.789 44.2244C284.377 47.5177 290.7 49.4059 296.353 52.7542C303.917 57.2551 310.537 63.2709 317.563 68.5622C324.977 74.2407 332.711 79.4894 340.726 84.2825C349.398 89.3872 358.598 93.7783 366.315 100.365C375.229 107.885 381.3 119.488 391.048 125.779C392.168 126.459 393.057 126.789 393.419 128.051Z"></path>
                          <path d="M81.6494 84.9961C85.8907 89.8477 90.7602 94.1117 96.1292 97.6755C101.21 101.014 107.043 103.032 113.101 103.549L118.151 103.977C119.066 104.062 119.971 104.239 120.851 104.504C121.756 104.688 122.645 104.945 123.508 105.272C126.983 106.551 130.087 108.671 132.543 111.442C137.153 116.712 139.617 123.521 139.448 130.521C137.087 124.33 133.805 118.632 129.249 114.79C127.033 112.92 124.459 111.519 121.686 110.673C120.996 110.473 120.296 110.312 119.589 110.19C118.87 110.007 118.134 109.904 117.393 109.883L112.607 109.553C105.503 108.966 98.7706 106.132 93.3847 101.463C88.1353 97.0621 84.096 91.3943 81.6494 84.9961V84.9961Z"></path>
                          <path d="M139.48 68.9905C142.51 68.8295 145.529 68.7417 148.537 68.727L157.484 68.6612H158.582C158.839 68.6595 159.096 68.6375 159.35 68.5953C159.555 68.5789 159.76 68.5789 159.965 68.5953C160.206 68.5967 160.445 68.6262 160.679 68.6831C160.998 68.7898 161.296 68.9534 161.557 69.1661C162.119 69.6463 162.479 70.3204 162.567 71.0543C162.639 71.567 162.672 72.0845 162.666 72.6022C162.571 73.7207 162.728 74.8461 163.127 75.8956C163.268 76.1701 163.485 76.3986 163.752 76.5542C164.132 76.8249 164.556 77.0291 165.004 77.158C165.447 77.2801 165.906 77.3356 166.365 77.3227C166.605 77.323 166.843 77.301 167.079 77.2568L167.584 77.147L171.316 80.4404C170.915 82.4262 170.771 84.4555 170.888 86.4782C170.912 86.8181 170.978 87.1537 171.086 87.4771C171.086 87.543 171.086 87.4771 171.086 87.565C171.091 87.5286 171.091 87.4916 171.086 87.4552C171.056 87.3834 171.002 87.3248 170.932 87.2905L171.13 87.4332C171.667 87.8724 172.787 88.531 173.742 89.1897C177.869 91.8359 181.571 95.0931 184.72 98.8502C187.772 102.56 190.332 106.649 192.339 111.014C194.336 115.291 195.846 119.78 196.84 124.396C194.337 120.411 192.075 116.404 189.408 112.704C186.852 109.02 183.991 105.557 180.856 102.352C177.756 99.2457 174.304 96.512 170.57 94.2066C169.593 93.5589 168.703 93.1088 167.408 92.1098L166.914 91.7146C166.662 91.4555 166.428 91.1805 166.211 90.8912L165.904 90.4412L165.728 90.0789C165.621 89.8461 165.526 89.6079 165.443 89.3653C165.203 88.5872 165.052 87.7843 164.993 86.9722C164.882 84.3611 165.122 81.747 165.707 79.1999L169.439 82.4932C168.894 82.6664 168.33 82.7732 167.759 82.8116C167.248 82.8554 166.734 82.8554 166.222 82.8116C165.185 82.7537 164.163 82.5352 163.193 82.1639C162.224 81.7891 161.323 81.2589 160.525 80.5941C159.592 79.8431 158.87 78.8636 158.428 77.7508C157.85 75.9612 157.729 74.0553 158.077 72.207C158.093 71.975 158.122 71.7441 158.165 71.5154C158.263 71.8699 158.475 72.1823 158.769 72.4046C158.955 72.5556 159.172 72.6642 159.405 72.723C159.545 72.7804 159.694 72.8102 159.844 72.8108C159.954 72.8108 160.251 72.8108 160.174 72.8108H159.921C159.428 72.8547 158.932 72.8547 158.439 72.8108L157.276 72.679C151.274 71.8165 145.331 70.5847 139.48 68.9905V68.9905Z"></path>
                          <path d="M202.701 24.9912C203.613 29.3823 204.469 33.7735 205.655 37.978C206.175 40.0677 206.832 42.1212 207.62 44.1256C207.806 44.6196 208.026 45.0916 208.234 45.5527C208.423 46.0173 208.643 46.4684 208.893 46.903C209.104 47.3255 209.35 47.7294 209.629 48.1105L210.573 49.362C211.474 50.4856 212.135 51.7821 212.516 53.1713C212.732 54.054 212.757 54.9727 212.591 55.8661C212.424 56.7595 212.069 57.6072 211.55 58.3528C210.728 59.4524 209.756 60.4316 208.662 61.2619C208.298 61.5533 207.95 61.8648 207.62 62.1951L207.521 62.2939C207.572 62.2585 207.617 62.2138 207.652 62.1621C207.738 62.0739 207.805 61.9694 207.85 61.8547L207.927 61.734C207.927 61.6132 207.927 61.6132 207.927 61.6352C207.925 61.6718 207.925 61.7084 207.927 61.745C208.001 62.594 208.148 63.4351 208.366 64.2589C208.608 65.2249 208.915 66.2239 209.244 67.2339C209.914 69.2319 210.704 71.2518 211.539 73.2387C212.373 75.2257 213.229 77.2237 214.162 79.1338C214.612 80.0779 215.095 81.044 215.557 81.8124L215.831 82.2406L215.963 82.3833L216.435 82.9871C216.673 83.299 216.886 83.6294 217.071 83.9751L217.511 84.7984C219.574 88.948 221.419 92.922 223.175 97.0277L228.488 109.213C229.356 111.255 230.278 113.264 231.222 115.251C232.074 117.293 233.216 119.201 234.614 120.915C232.733 119.634 231.106 118.015 229.817 116.14C228.412 114.362 227.149 112.484 225.898 110.651C223.409 106.846 221.067 102.996 218.872 99.1025C216.676 95.2712 214.623 91.2204 212.45 87.5648L212.055 86.9391L211.857 86.6207C211.791 86.5 211.802 86.6207 211.78 86.5219C211.758 86.4231 211.78 86.5219 211.78 86.4561L211.615 86.2804L211.308 85.9291C211.061 85.6332 210.834 85.3215 210.627 84.996C209.903 83.8982 209.376 82.8663 208.827 81.8234C207.729 79.7596 206.851 77.6738 205.973 75.5661C205.095 73.4583 204.337 71.2957 203.646 69.0672C203.294 67.9694 202.976 66.8716 202.701 65.6311C202.358 64.3018 202.203 62.9308 202.24 61.5583C202.248 61.3153 202.274 61.0731 202.317 60.8338C202.364 60.5269 202.441 60.2253 202.548 59.9336C202.608 59.7616 202.678 59.593 202.756 59.4287C202.882 59.1951 203.025 58.9712 203.185 58.759L203.437 58.4626L203.547 58.3528L203.755 58.1662C204.243 57.7372 204.752 57.3342 205.281 56.9586C205.994 56.4906 206.649 55.9417 207.235 55.3229C207.374 55.1799 207.477 55.0055 207.534 54.8144C207.592 54.6233 207.602 54.4211 207.565 54.2252C207.439 53.437 207.139 52.6869 206.686 52.0296L205.786 50.5037C205.463 49.95 205.188 49.3697 204.963 48.7692C204.495 47.659 204.128 46.509 203.865 45.3331C203.347 43.0878 202.981 40.8103 202.767 38.5159C202.344 34.0186 202.321 29.4924 202.701 24.9912V24.9912Z"></path>
                          <path d="M206.248 64.1383C212.577 63.6772 218.932 63.6772 225.261 64.1383C226.864 64.281 228.467 64.4786 230.091 64.775C230.933 64.9254 231.765 65.1233 232.583 65.3678C233.586 65.6309 234.526 66.0898 235.35 66.7181C235.66 66.9852 235.93 67.2958 236.151 67.6402C236.273 67.882 236.379 68.1313 236.47 68.3867L236.524 68.5623V68.5294C236.47 68.3867 236.623 68.6063 236.799 68.7599C237.282 69.1699 237.8 69.5372 238.347 69.8577C239.605 70.6335 240.91 71.3301 242.255 71.9435C247.818 74.5058 253.582 76.606 259.49 78.2228C260.95 78.5961 262.41 78.9583 263.815 79.2108C264.48 79.3328 265.15 79.4171 265.824 79.4633C266.095 79.4793 266.366 79.4793 266.637 79.4633C266.71 79.4693 266.783 79.4693 266.856 79.4633C266.702 79.4633 267.57 79.3316 267.866 79.3426C268.985 79.3428 270.096 79.5207 271.159 79.8695C272.038 80.133 272.85 80.4294 273.629 80.7367C275.21 81.3625 276.692 82.0541 278.152 82.7676C283.818 85.7248 289.315 88.9939 294.619 92.5599C297.254 94.3602 299.855 96.2155 302.402 98.1695C303.676 99.1575 304.949 100.157 306.19 101.243C306.804 101.792 307.419 102.341 308.034 103C308.341 103.329 308.649 103.658 308.967 104.098C309.465 104.645 309.839 105.292 310.065 105.997C310.199 106.485 310.199 107.001 310.065 107.49C309.977 107.866 309.8 108.216 309.549 108.511C309.438 108.655 309.309 108.784 309.165 108.895L308.945 109.06C308.879 109.114 308.945 109.06 308.945 109.06C309.078 108.971 309.191 108.855 309.274 108.719C309.442 108.481 309.552 108.206 309.593 107.918C309.615 107.769 309.615 107.617 309.593 107.468C309.602 107.388 309.602 107.306 309.593 107.226C309.561 107.142 309.521 107.061 309.472 106.985C309.395 106.886 309.472 106.985 309.472 107.04C309.908 107.477 310.386 107.871 310.899 108.214C312.085 109.038 313.435 109.817 314.763 110.629L318.836 113.066C319.517 113.484 320.208 113.923 320.9 114.406C321.28 114.649 321.646 114.913 321.998 115.196C322.486 115.576 322.884 116.059 323.161 116.612C323.361 117.088 323.404 117.615 323.282 118.116C323.195 118.452 323.054 118.77 322.865 119.06C322.612 119.45 322.326 119.818 322.009 120.158C321.503 120.699 321.026 121.267 320.582 121.86C319.76 122.963 319.321 124.304 319.33 125.68C319.385 128.545 321.01 131.443 322.766 134.012C320.571 131.817 318.309 129.303 317.661 125.834C317.381 124.048 317.706 122.221 318.584 120.641C318.989 119.911 319.44 119.207 319.934 118.533C320.121 118.263 320.29 117.981 320.439 117.688C320.439 117.589 320.439 117.501 320.439 117.545C320.402 117.66 320.402 117.782 320.439 117.897C320.549 118.105 320.274 117.787 320.022 117.644C319.769 117.501 319.451 117.293 319.133 117.117C318.496 116.766 317.815 116.426 317.124 116.096L312.853 114.109C311.353 113.453 309.887 112.72 308.462 111.914C307.624 111.446 306.843 110.882 306.135 110.234C305.865 109.98 305.629 109.692 305.432 109.378C305.276 109.136 305.154 108.874 305.07 108.598C305.016 108.426 304.972 108.25 304.938 108.072C304.916 107.827 304.916 107.581 304.938 107.336C304.998 106.851 305.184 106.389 305.476 105.997C305.689 105.714 305.944 105.465 306.234 105.261H306.288L306.124 105.371C306.021 105.458 305.925 105.553 305.838 105.656C305.657 105.882 305.526 106.144 305.454 106.425C305.386 106.725 305.386 107.036 305.454 107.336C305.619 107.775 305.454 107.402 305.268 107.259C305.081 107.116 304.828 106.831 304.587 106.611C304.071 106.15 303.489 105.689 302.907 105.228C301.722 104.317 300.492 103.406 299.23 102.528C296.705 100.771 294.103 99.0807 291.457 97.456C286.25 94.1225 280.879 91.0522 275.364 88.2566C274.014 87.5759 272.641 86.9173 271.302 86.3574C270.633 86.083 269.963 85.8305 269.348 85.6329C268.911 85.4786 268.458 85.3754 267.998 85.3255C267.91 85.3255 268.382 85.2596 267.833 85.3255C267.521 85.3822 267.206 85.4152 266.889 85.4243C266.374 85.458 265.857 85.458 265.341 85.4243C264.482 85.3234 263.628 85.1805 262.783 84.9961C261.148 84.6734 259.531 84.2593 257.942 83.7556C251.765 81.8321 245.796 79.2945 240.125 76.181C238.663 75.3709 237.252 74.4727 235.899 73.4914C235.141 72.9472 234.438 72.3294 233.802 71.6471C233.321 71.1673 232.947 70.5911 232.704 69.9565L232.594 69.6272V69.4625C232.609 69.5393 232.643 69.6111 232.693 69.6711C232.693 69.6711 232.77 69.737 232.693 69.6711C232.288 69.3168 231.819 69.0447 231.31 68.8697C230.639 68.5919 229.954 68.35 229.257 68.1452C227.83 67.728 226.326 67.3987 224.811 67.0474C218.762 65.8179 212.505 65.0385 206.248 64.1383Z"></path>
                          </svg>