<svg width="60" height="60" viewBox="0 0 60 60" fill="none" xmlns="http://www.w3.org/2000/svg">
<g clip-path="url(#clip0_14_673)">
<path opacity="0.925" fill-rule="evenodd" clip-rule="evenodd" d="M-0.0585938 36.7383C-0.0585938 36.3867 -0.0585938 36.0351 -0.0585938 35.6836C2.30168 34.2491 4.68449 32.8428 7.08984 31.4648C4.06042 29.8157 3.45495 27.5109 5.27344 24.5508C5.74939 23.9174 6.35487 23.4682 7.08984 23.2031C6.42831 22.2286 6.21346 21.1543 6.44531 19.9805C6.8209 18.6806 7.54356 17.6259 8.61328 16.8164C6.28446 15.2353 5.79618 13.2041 7.14844 10.7226C7.64182 10.0339 8.24728 9.46748 8.96484 9.02343C7.42799 7.12379 7.40845 5.19019 8.90625 3.22265C10.4881 1.55798 12.3045 1.26501 14.3555 2.34374C16.0113 3.2774 17.652 4.23442 19.2773 5.21484C20.8789 4.29687 22.4804 3.37889 24.082 2.46093C26.2157 1.39749 28.1687 1.6514 29.9414 3.22265C31.4276 1.81618 33.1464 1.44509 35.0977 2.10937C36.3571 2.7877 37.5875 3.51036 38.7891 4.27734C39.1557 5.10647 38.9019 5.61428 38.0273 5.80077C37.6521 5.73054 37.3005 5.59382 36.9727 5.39062C36.0237 4.79294 35.0471 4.24606 34.043 3.74999C33.1562 3.5492 32.3749 3.74452 31.6992 4.33593C33.3602 5.2642 35.04 6.16263 36.7383 7.03124C38.4505 8.60079 38.7045 10.3781 37.5 12.3633C36.5341 13.5005 35.3037 14.0473 33.8086 14.0039C31.1873 13.7096 28.7264 12.9088 26.4258 11.6016C21.9328 8.92516 17.4016 6.30797 12.832 3.74999C11.702 3.41061 10.8231 3.74263 10.1953 4.74609C9.55614 5.62361 9.51708 6.52205 10.0781 7.4414C10.5927 7.92329 11.1591 8.33344 11.7773 8.67187C14.3664 10.1291 16.925 11.633 19.4531 13.1836C19.7215 14.2721 19.3113 14.7213 18.2227 14.5312C16.1914 13.3594 14.1601 12.1875 12.1289 11.0156C10.704 10.1951 9.55161 10.4881 8.67188 11.8945C7.96389 13.4304 8.37404 14.5827 9.90234 15.3516C12.5586 16.875 15.2148 18.3984 17.8711 19.9219C18.3898 20.5595 18.3116 21.1064 17.6367 21.5625C17.4023 21.6407 17.168 21.6407 16.9336 21.5625C15.1368 20.5468 13.3398 19.5313 11.543 18.5156C9.88533 18.0271 8.81112 18.6326 8.32031 20.332C8.09766 21.5546 8.54687 22.4335 9.66797 22.9687C11.7773 24.1796 13.8867 25.3907 15.9961 26.6016C16.659 27.0654 16.7371 27.6123 16.2305 28.2422C15.934 28.4088 15.6214 28.4478 15.293 28.3594C13.6523 27.4219 12.0117 26.4844 10.3711 25.5469C8.43029 24.2889 7.04357 24.738 6.21094 26.8945C6.00918 27.9167 6.3412 28.7175 7.20703 29.2969C10.5282 31.1129 13.7313 33.1051 16.8164 35.2734C17.1404 35.6244 17.238 36.0346 17.1094 36.5039C17.0508 36.7187 16.914 36.8555 16.6992 36.9141C16.3867 36.9922 16.0743 36.9922 15.7617 36.9141C13.6109 35.3685 11.3844 33.9426 9.08203 32.6367C6.48925 34.07 3.91112 35.5349 1.34766 37.0312C0.827565 37.2336 0.358815 37.136 -0.0585938 36.7383ZM25.8398 3.6914C26.3985 3.65516 26.9454 3.71376 27.4805 3.86718C30.0415 5.63683 32.7368 7.19932 35.5664 8.55468C36.6933 9.64747 36.6543 10.7022 35.4492 11.7187C34.6699 12.0974 33.8496 12.2146 32.9883 12.0703C31.1843 11.6773 29.4655 11.0523 27.832 10.1953C25.7029 8.91572 23.5543 7.66572 21.3867 6.4453C21.2305 6.36718 21.2305 6.28906 21.3867 6.21093C22.8632 5.33657 24.3476 4.49672 25.8398 3.6914Z" fill="#000"/>
<path opacity="0.929" fill-rule="evenodd" clip-rule="evenodd" d="M59.9414 35.6836C59.9414 36.0352 59.9414 36.3867 59.9414 36.7383C59.524 37.136 59.0552 37.2336 58.5352 37.0313C57.4318 36.4309 56.3576 35.7864 55.3125 35.0977C54.3845 36.6018 53.4861 38.1252 52.6172 39.668C51.9796 40.1866 51.4327 40.1085 50.9766 39.4336C50.8984 39.1992 50.8984 38.9649 50.9766 38.7305C51.8407 37.217 52.7196 35.713 53.6133 34.2188C52.8125 33.7304 52.0117 33.2422 51.2109 32.7539C48.6367 37.1799 46.0781 41.6134 43.5352 46.0547C44.2835 46.5563 45.0452 47.0446 45.8203 47.5195C46.997 45.5372 48.1884 43.5645 49.3945 41.6016C50.5468 41.3476 50.9961 41.7969 50.7422 42.9492C49.5117 45.039 48.2812 47.129 47.0508 49.2188C51.4129 51.6527 55.7096 54.1723 59.9414 56.7774C59.9414 57.0899 59.9414 57.4023 59.9414 57.7149C59.6325 58.0841 59.2419 58.2209 58.7695 58.125C54.327 55.6404 49.9324 53.0817 45.5859 50.4492C45.3418 50.0686 45.1661 49.6584 45.0586 49.2188C43.915 48.6376 42.8407 47.954 41.8359 47.168C41.6876 46.8204 41.5508 46.4688 41.4258 46.1133C40.4493 45.5469 39.4726 44.9804 38.4961 44.4141C35.673 44.5255 32.8605 44.3889 30.0586 44.0039C27.18 44.4293 24.2895 44.5659 21.3867 44.4141C14.5703 48.4177 7.71475 52.3434 0.820312 56.1914C0.473137 56.1298 0.180169 55.9736 -0.0585938 55.7227C-0.0585938 55.3711 -0.0585938 55.0195 -0.0585938 54.668C6.89205 50.5672 13.8843 46.5243 20.918 42.5391C22.2064 42.5596 23.4955 42.5596 24.7852 42.5391C22.6105 41.4619 20.5597 40.1924 18.6328 38.7305C18.4316 37.7208 18.8418 37.2716 19.8633 37.3828C21.2381 38.3275 22.6444 39.2259 24.082 40.0781C26.7553 41.4959 29.6068 42.2772 32.6367 42.4219C34.7447 42.6171 36.8541 42.6563 38.9648 42.5391C40.0437 43.168 41.1374 43.7735 42.2461 44.3555C44.385 40.7419 46.4944 37.1091 48.5742 33.457C47.7213 33.5108 46.862 33.4522 45.9961 33.2813C43.6284 32.2558 42.8863 30.5175 43.7695 28.0664C40.5345 27.7062 39.2258 25.9484 39.8438 22.793C40.3826 21.6672 41.1443 20.7101 42.1289 19.9219C40.5193 19.3433 39.66 18.1909 39.5508 16.4649C39.7671 14.7036 40.5874 13.2974 42.0117 12.2461C40.2103 11.4173 39.4095 10.011 39.6094 8.02735C39.9107 6.71028 40.5943 5.63607 41.6602 4.8047C43.1693 3.7178 44.7708 2.7803 46.4648 1.99219C48.9562 1.47045 50.6946 2.38842 51.6797 4.7461C52.2595 6.31019 52.0057 7.71644 50.918 8.96485C53.0532 10.3432 53.815 12.2572 53.2031 14.707C52.743 15.5774 52.0985 16.2805 51.2695 16.8164C52.9548 18.0779 53.6775 19.7577 53.4375 21.8555C53.3317 22.36 53.1168 22.8093 52.793 23.2031C54.6108 24.0628 55.5483 25.5082 55.6055 27.5391C55.6256 28.6512 55.2349 29.5887 54.4336 30.3516C53.907 30.7516 53.3602 31.1228 52.793 31.4649C55.1984 32.8429 57.5811 34.2491 59.9414 35.6836ZM47.2852 3.69141C48.9446 3.76803 49.8821 4.64694 50.0977 6.32813C49.956 7.2137 49.4872 7.87776 48.6914 8.32032C47.6312 8.96762 46.5375 9.55356 45.4102 10.0781C44.3614 10.5498 43.3068 10.5889 42.2461 10.1953C41.182 9.15543 41.1625 8.08122 42.1875 6.97266C43.7231 5.61054 45.4223 4.51679 47.2852 3.69141ZM48.5742 10.6055C50.3291 10.5618 51.3448 11.4212 51.6211 13.1836C51.5269 13.9383 51.1753 14.5438 50.5664 15C48.9056 15.9673 47.226 16.9048 45.5273 17.8125C44.4425 18.2898 43.3487 18.329 42.2461 17.9297C41.5659 17.3366 41.351 16.6139 41.6016 15.7617C42.0775 14.7389 42.8002 13.9382 43.7695 13.3594C45.3821 12.4366 46.9837 11.5187 48.5742 10.6055ZM49.2773 18.2227C50.3272 18.3927 51.0499 18.9786 51.4453 19.9805C51.73 20.7668 51.6519 21.509 51.2109 22.207C49.3271 23.5034 47.3545 24.6558 45.293 25.6641C44.2642 26.1379 43.2486 26.1379 42.2461 25.6641C41.2172 24.7296 41.1586 23.7335 42.0703 22.6758C42.6454 22.0221 43.2899 21.4557 44.0039 20.9766C45.234 20.303 46.4449 19.5999 47.6367 18.8672C48.1838 18.6117 48.7305 18.3969 49.2773 18.2227ZM51.2695 24.7852C52.779 25.045 53.5993 25.9434 53.7305 27.4805C53.6145 28.3986 53.1457 29.0823 52.3242 29.5313C51.2429 30.2087 50.1101 30.7947 48.9258 31.2891C47.9816 31.6595 47.0441 31.6595 46.1133 31.2891C45.1321 30.3873 45.0345 29.3912 45.8203 28.3008C47.3815 26.7294 49.1979 25.5575 51.2695 24.7852Z" fill="#000"/>
</g>
<defs>
<clipPath id="clip0_14_673">
<rect width="60" height="60" fill="white"/>
</clipPath>
</defs>
</svg>
